PathFileType	4	(X/Y/Z)	s08c0203.trc
DataRate	CameraRate	NumFrames	NumMarkers	Units	OrigDataRate	OrigDataStartFrame	OrigNumFrames
200	200	5	50	mm	200	1500	2000
Frame#	Time	racr			lacr			c7			jug			rlel			rdr			llel			ldr			s2			lic			ric			lasi			rasi			rpsi			lpsi			rgt			lgt			rth1			rth2			rth3			rth4			rlfc			rmfc			rsh1			rsh2			rsh3			rsh4			rlmal			rmmal			rcal			rtoe			rmt5			lth1			lth2			lth4			lth3			llfc			lmfc			llmal			lmmal			lcal			lmt5			lsh1			lsh2			lsh3			lsh4			ltoe			SBIKE			LBIKE			RBIKE			
		X1	Y1	Z1	X2	Y2	Z2	X3	Y3	Z3	X4	Y4	Z4	X5	Y5	Z5	X6	Y6	Z6	X7	Y7	Z7	X8	Y8	Z8	X9	Y9	Z9	X10	Y10	Z10	X11	Y11	Z11	X12	Y12	Z12	X13	Y13	Z13	X14	Y14	Z14	X15	Y15	Z15	X16	Y16	Z16	X17	Y17	Z17	X18	Y18	Z18	X19	Y19	Z19	X20	Y20	Z20	X21	Y21	Z21	X22	Y22	Z22	X23	Y23	Z23	X24	Y24	Z24	X25	Y25	Z25	X26	Y26	Z26	X27	Y27	Z27	X28	Y28	Z28	X29	Y29	Z29	X30	Y30	Z30	X31	Y31	Z31	X32	Y32	Z32	X33	Y33	Z33	X34	Y34	Z34	X35	Y35	Z35	X36	Y36	Z36	X37	Y37	Z37	X38	Y38	Z38	X39	Y39	Z39	X40	Y40	Z40	X41	Y41	Z41	X42	Y42	Z42	X43	Y43	Z43	X44	Y44	Z44	X45	Y45	Z45	X46	Y46	Z46	X47	Y47	Z47	X48	Y48	Z48	X49	Y49	Z49	X50	Y50	Z50	
1500	7.5000	522.556760	1332.601601	-75.250933	548.567389	1330.570263	-406.311840	517.234529	1404.329654	-236.633407	467.392163	1249.301973	-240.105494	546.955674	1105.224090	58.171962	747.463616	926.052222	-70.977438	515.475611	1089.916601	-554.910593	710.354010	932.531831	-443.310591	-38.233501	1197.772489	-267.232343	120.860413	1198.223159	-420.325868	107.623656	1216.780667	-98.403210	145.515200	1148.839108	-380.186697	140.341094	1162.254794	-134.650577	-11.628731	1241.374297	-217.991572	-6.741039	1238.369245	-314.330467	61.877597	1111.907302	-63.566487	67.309461	1065.675522	-438.930752	203.813974	1008.670458	-65.934215	285.579906	975.057450	-73.664964	337.453744	905.229505	-79.676880	306.227880	1002.305354	-89.703198	410.778449	819.937709	-102.796458	385.807013	804.858844	-208.997984	303.509460	750.051152	-63.746667	255.377462	674.868710	-77.635220	179.345189	634.941716	-75.918841	277.534389	655.172291	-105.329389	85.700855	558.889370	-75.058378	112.614645	561.581530	-161.685546	3.827249	575.122698	-117.520501	244.249793	396.166757	-107.832975	152.482497	425.336906	-43.010095	144.234326	947.502479	-442.526716	208.776909	889.067398	-434.683164	238.261933	908.857752	-424.449017	235.321008	804.562838	-429.161856	286.599427	689.066460	-407.082331	278.983289	662.311592	-300.521858	245.452451	266.909187	-405.715648	282.221885	301.651388	-333.866918	184.041878	233.949602	-365.903201	396.768379	203.515849	-423.951126	268.157964	557.660636	-430.203577	283.130017	474.566237	-413.654290	256.567346	390.208650	-413.495501	303.632634	477.175567	-379.612077	473.342781	246.183298	-355.546200	-200.786976	919.925966	-232.717927	-10.512488	79.550879	-428.146994	-10.687594	80.697685	-29.920528	
1501	7.5050	522.323957	1331.916256	-72.779815	549.465801	1330.887195	-402.667429	517.108723	1404.062277	-233.371897	468.212258	1248.752574	-237.669165	546.141856	1104.259598	60.586757	746.963383	925.885597	-70.768505	517.016522	1092.224352	-554.267831	710.342285	932.485850	-443.596672	-37.711038	1197.911240	-270.131480	122.576102	1197.141391	-421.009609	105.304382	1217.870604	-99.719474	145.986586	1147.460926	-381.276587	138.690765	1163.651059	-135.527620	-12.392078	1242.267211	-220.635599	-6.098730	1238.529742	-317.048441	60.606067	1114.556664	-64.527512	66.255988	1064.695191	-439.764226	204.622509	1014.255451	-66.094319	286.906416	982.177357	-73.817497	340.282291	913.283937	-79.365089	306.954440	1009.741456	-90.291749	414.989950	828.630791	-102.494681	390.948759	813.339890	-208.748468	308.467737	758.821745	-63.721425	260.516910	683.612984	-77.462385	184.649927	643.597671	-75.492457	282.595069	663.583320	-105.021345	91.300882	566.620492	-75.373913	117.697104	569.391185	-161.563343	9.308361	581.907808	-117.518698	251.899031	405.681363	-108.606367	159.575002	433.866043	-43.242155	140.183058	944.904500	-443.953414	203.360073	884.954662	-436.429022	233.265740	903.919581	-426.209209	227.739966	799.690325	-431.058165	276.449596	681.345253	-406.614342	268.661789	656.724826	-302.539929	238.590008	260.830260	-405.988889	276.171633	295.846274	-334.582788	177.715362	228.995079	-365.900625	389.927447	195.151168	-423.801412	258.069762	551.621133	-432.032501	274.102299	468.742692	-415.488776	248.282021	384.304766	-415.115697	294.954564	471.622453	-381.526849	467.135632	236.744340	-355.427912	-200.814256	919.928695	-232.697704	-10.531675	79.545242	-428.147747	-10.703730	80.679998	-29.918918	
1502	7.5100	522.460232	1331.539207	-69.882778	550.849356	1332.006947	-401.682810	516.889914	1403.771317	-230.187715	470.084290	1247.829301	-234.916346	545.254855	1103.139628	63.065977	746.514796	925.727489	-70.510764	518.631391	1094.522173	-553.674814	710.379966	932.421370	-443.831191	-37.841043	1198.185806	-272.171399	124.293970	1195.953130	-421.475624	103.194348	1218.632565	-101.017405	146.470790	1145.912215	-382.291597	137.077619	1164.800470	-136.393094	-14.827596	1242.832977	-223.533052	-5.849599	1239.042499	-319.651398	59.407555	1117.188503	-65.332616	65.127661	1063.708617	-440.584835	204.930010	1019.434824	-66.520661	288.456211	989.274452	-73.796604	342.773704	921.513343	-78.853454	307.509791	1017.342580	-90.136497	419.422748	837.705561	-101.293644	395.931728	821.769664	-208.148657	313.574576	767.530011	-63.354131	265.758148	691.874098	-77.170839	190.038675	651.676991	-75.577643	288.253564	671.988522	-104.418473	97.218546	573.645712	-75.566250	123.368100	577.020700	-161.421792	14.875828	588.038134	-117.636040	259.293877	414.868167	-109.235865	167.057889	441.868375	-43.445673	135.938887	942.563017	-445.913994	197.899192	881.123548	-438.449994	228.127893	899.254389	-428.137274	220.244346	795.285108	-433.378324	266.545544	675.460722	-408.181774	258.868478	651.397610	-304.822963	231.424557	255.197071	-406.240007	269.471962	290.485613	-335.235955	170.915260	224.569180	-365.924307	382.571557	187.262625	-423.664481	247.885829	545.909927	-433.907628	264.896724	463.332648	-417.358391	239.735806	378.583464	-416.483014	286.066592	466.330973	-383.574999	460.406438	227.834421	-355.335451	-200.867677	919.946824	-232.660146	-10.547379	79.563582	-428.151652	-10.734801	80.869252	-29.778188	
1503	7.5150	522.245551	1330.964331	-67.397387	551.262088	1331.993652	-398.086620	516.650759	1403.341925	-226.989273	470.581792	1247.195111	-232.220661	544.198474	1102.136016	65.130680	746.068270	925.590707	-70.294709	520.333833	1096.765234	-553.090812	710.470690	932.346582	-444.057335	-37.938695	1198.377163	-274.042021	125.992699	1194.685332	-421.815710	100.998045	1219.512017	-102.218658	146.914342	1144.423911	-383.174457	135.612925	1165.924114	-136.976576	-8.764550	1241.962912	-227.927222	-5.872763	1239.112144	-321.866040	58.304384	1119.787433	-65.982516	63.855520	1062.721625	-441.367008	205.302465	1024.849123	-67.125718	289.401926	996.257883	-73.598724	345.267551	929.543898	-78.848939	308.024830	1024.572537	-90.243798	423.791066	846.906388	-100.545273	400.687946	829.894151	-207.241788	318.552845	775.887078	-63.039491	271.131965	699.956010	-76.745347	195.564416	659.311384	-75.399452	293.899657	680.058763	-103.584500	103.388724	580.075922	-75.711331	129.615204	583.890261	-161.497249	20.724607	593.400712	-117.751744	267.726357	423.731040	-109.528229	175.557249	449.634237	-43.498804	131.925607	940.462963	-447.668870	192.457666	877.570211	-440.746234	223.079214	894.992129	-430.329012	212.730373	791.139353	-436.071156	256.600399	670.344714	-410.364623	249.370809	646.566685	-306.992483	223.853036	250.028825	-406.531177	262.537053	285.462730	-335.996102	163.656493	220.614396	-365.974136	374.793459	179.797508	-423.550658	237.648432	540.744125	-435.917614	255.499084	458.287837	-419.265316	230.864861	373.329420	-417.793853	277.120145	461.352083	-385.578593	453.233418	219.479048	-355.252996	-200.894991	919.951196	-232.640531	-10.550912	79.560371	-428.152483	-10.728639	80.846492	-29.806337	
1504	7.5200	522.028252	1330.332638	-64.918607	551.577788	1332.155366	-394.823351	516.332303	1402.995398	-223.912703	471.046743	1246.637560	-229.706547	543.362653	1100.998776	67.423912	745.571951	925.632997	-70.213534	522.029125	1098.971796	-552.491747	710.654388	932.271167	-444.233404	-37.819468	1198.565364	-275.999986	127.558859	1193.414922	-421.818675	99.086310	1220.151803	-103.365425	147.392175	1142.981263	-383.818498	134.129679	1167.007718	-137.753913	-11.664820	1243.074441	-229.245160	-5.206151	1239.187232	-323.878014	57.219460	1122.292425	-66.446507	62.524817	1061.732770	-442.018978	205.344260	1030.313145	-67.852582	290.112988	1003.118297	-73.471660	347.300531	937.764426	-77.214516	307.631860	1030.590440	-91.800099	427.908833	855.795381	-99.029183	405.227255	839.344827	-209.815880	323.395460	784.006465	-62.703609	276.545149	707.650014	-76.241364	201.294710	666.388366	-75.016973	299.560205	687.595682	-102.854405	109.916263	585.874552	-75.742985	136.033427	590.256198	-161.433783	27.119317	597.922599	-117.635483	276.424891	432.226238	-109.682423	183.941185	456.655865	-43.634107	127.927867	938.466789	-449.147905	187.168506	874.281594	-443.160565	218.220140	890.981000	-432.673505	205.889987	787.480918	-438.777064	246.779343	665.827134	-412.960363	240.346147	642.142486	-309.230528	216.031365	245.441416	-406.916154	255.211328	281.011713	-336.666973	156.044069	217.023897	-365.942310	366.574705	172.867923	-423.379595	227.461119	535.964881	-437.872734	246.048348	453.818250	-421.362710	221.729886	368.667041	-419.001539	268.125339	456.972480	-387.934794	445.654833	211.592590	-355.263914	-200.866083	919.940035	-232.609654	-10.592644	79.561970	-428.118421	-10.751665	80.671726	-29.911618	
